# xmcd
#
# Track frame offsets:
#	150
#	15855
#	28964
#	43699
#	56955
#	71954
#	86280
#	99466
#	113017
#	127346
#	141533
#	155711
#	170216
#	182881
#	197919
#	212994
#	226352
#	241665
#	257095
#	270092
#	284857
#	300012
#	313557
#	328275
#	341155
#
# Disc length: 4746 seconds
#
# Revision: 0
# Processed by: cddbd v1.5.2PL0 Copyright (c) Steve Scherf et al.
# Submitted via: audiograbber 1.83.01
#
DISCID=82128819
DTITLE=Louis Armstrong - The Real ..Louis Armstrong - CD3
DYEAR=1900
DGENRE=
TTITLE0=Keyhole Blues
TTITLE1=Sol Blues
TTITLE2=Gully Low Blues
TTITLE3=That's When I'll Come Back To You
TTITLE4=Chicago Breakdown
TTITLE5=You're A Real Sweetheart
TTITLE6=Too Busy
TTITLE7=Was It A Dream
TTITLE8=Last Night I Dreamed You Kissed Me
TTITLE9=Fireworks
TTITLE10=Skip The Gutter
TTITLE11=A Monday Date
TTITLE12=Don't Jive Me
TTITLE13=West End Blues
TTITLE14=Sugar Foot Strut
TTITLE15=Two Deuces
TTITLE16=Squeeze Me
TTITLE17=Knee Drops
TTITLE18=No Papa No
TTITLE19=Basin Street Blues
TTITLE20=No One Else But You
TTITLE21=Beau Koo Jack
TTITLE22=Save It Pretty Mama
TTITLE23=Muggles
TTITLE24=Hear Me Talkin To Ya
EXTD=
EXTT0=
EXTT1=
EXTT2=
EXTT3=
EXTT4=
EXTT5=
EXTT6=
EXTT7=
EXTT8=
EXTT9=
EXTT10=
EXTT11=
EXTT12=
EXTT13=
EXTT14=
EXTT15=
EXTT16=
EXTT17=
EXTT18=
EXTT19=
EXTT20=
EXTT21=
EXTT22=
EXTT23=
EXTT24=
PLAYORDER=
